HIERARCHY
ROOT Hips
{
	OFFSET 0.000000 0.000000 0.000000
	CHANNELS 6 Xposition Yposition Zposition Zrotation Yrotation Xrotation 
	JOINT LHipJoint
	{
		OFFSET 0.000000 0.000000 0.000000
		CHANNELS 3 Zrotation Yrotation Xrotation
		JOINT LeftUpLeg
		{
			OFFSET 1.363060 -1.794630 0.839290
			CHANNELS 3 Zrotation Yrotation Xrotation
			JOINT LeftLeg
			{
				OFFSET 2.448110 -6.726130 0.000000
				CHANNELS 3 Zrotation Yrotation Xrotation
				JOINT LeftFoot
				{
					OFFSET 2.562200 -7.039590 0.000000
					CHANNELS 3 Zrotation Yrotation Xrotation
					JOINT LeftToeBase
					{
						OFFSET 0.157640 -0.433110 2.322550
						CHANNELS 3 Zrotation Yrotation Xrotation
						End Site
						{
							OFFSET 0.000000 0.000000 0.000000
						}
					}
				}
			}
		}
	}
	JOINT RHipJoint
	{
		OFFSET 0.000000 0.000000 0.000000
		CHANNELS 3 Zrotation Yrotation Xrotation
		JOINT RightUpLeg
		{
			OFFSET -1.305520 -1.794630 0.839290
			CHANNELS 3 Zrotation Yrotation Xrotation
			JOINT RightLeg
			{
				OFFSET -2.542530 -6.985550 0.000000
				CHANNELS 3 Zrotation Yrotation Xrotation
				JOINT RightFoot
				{
					OFFSET -2.568260 -7.056230 0.000000
					CHANNELS 3 Zrotation Yrotation Xrotation
					JOINT RightToeBase
					{
						OFFSET -0.164730 -0.452590 2.363150
						CHANNELS 3 Zrotation Yrotation Xrotation
						End Site
						{
							OFFSET 0.000000 0.000000 0.000000
						}
					}
				}
			}
		}
	}
	JOINT LowerBack
	{
		OFFSET 0.000000 0.000000 0.000000
		CHANNELS 3 Zrotation Yrotation Xrotation
		JOINT Spine
		{
			OFFSET 0.028270 2.035590 -0.193380
			CHANNELS 3 Zrotation Yrotation Xrotation
			JOINT Spine1
			{
				OFFSET 0.056720 2.048850 -0.042750
				CHANNELS 3 Zrotation Yrotation Xrotation
				JOINT Neck
				{
					OFFSET 0.000000 0.000000 0.000000
					CHANNELS 3 Zrotation Yrotation Xrotation
					JOINT Neck1
					{
						OFFSET -0.054170 1.746240 0.172020
						CHANNELS 3 Zrotation Yrotation Xrotation
						JOINT Head
						{
							OFFSET 0.104070 1.761360 -0.123970
							CHANNELS 3 Zrotation Yrotation Xrotation
							End Site
							{
								OFFSET 0.000000 0.000000 0.000000
							}
						}
					}
				}
				JOINT LeftShoulder
				{
					OFFSET 0.000000 0.000000 0.000000
					CHANNELS 3 Zrotation Yrotation Xrotation
					JOINT LeftArm
					{
						OFFSET 3.362410 1.200890 -0.311210
						CHANNELS 3 Zrotation Yrotation Xrotation
						JOINT LeftForeArm
						{
							OFFSET 4.983000 -0.000000 -0.000000
							CHANNELS 3 Zrotation Yrotation Xrotation
							JOINT LeftHand
							{
								OFFSET 3.483560 -0.000000 -0.000000
								CHANNELS 3 Zrotation Yrotation Xrotation
								JOINT LeftFingerBase
								{
									OFFSET 0.000000 0.000000 0.000000
									CHANNELS 3 Zrotation Yrotation Xrotation
									JOINT LeftHandIndex1
									{
										OFFSET 0.715260 -0.000000 -0.000000
										CHANNELS 3 Zrotation Yrotation Xrotation
										End Site
										{
											OFFSET 0.000000 0.000000 0.000000
										}
									}
								}
								JOINT LThumb
								{
									OFFSET 0.000000 0.000000 0.000000
									CHANNELS 3 Zrotation Yrotation Xrotation
									End Site
									{
										OFFSET 0.000000 0.000000 0.000000
									}
								}
							}
						}
					}
				}
				JOINT RightShoulder
				{
					OFFSET 0.000000 0.000000 0.000000
					CHANNELS 3 Zrotation Yrotation Xrotation
					JOINT RightArm
					{
						OFFSET -3.136600 1.374050 -0.404650
						CHANNELS 3 Zrotation Yrotation Xrotation
						JOINT RightForeArm
						{
							OFFSET -5.241900 -0.000000 -0.000000
							CHANNELS 3 Zrotation Yrotation Xrotation
							JOINT RightHand
							{
								OFFSET -3.444170 -0.000000 -0.000000
								CHANNELS 3 Zrotation Yrotation Xrotation
								JOINT RightFingerBase
								{
									OFFSET 0.000000 0.000000 0.000000
									CHANNELS 3 Zrotation Yrotation Xrotation
									JOINT RightHandIndex1
									{
										OFFSET -0.622530 -0.000000 -0.000000
										CHANNELS 3 Zrotation Yrotation Xrotation
										End Site
										{
											OFFSET 0.000000 0.000000 0.000000
										}
									}
								}
								JOINT RThumb
								{
									OFFSET 0.000000 0.000000 0.000000
									CHANNELS 3 Zrotation Yrotation Xrotation
									End Site
									{
										OFFSET 0.000000 0.000000 0.000000
									}
								}
							}
						}
					}
				}
			}
		}
	}
}
MOTION
Frames: 12
Frame Time: 0.008333
0.434377 17.844537 -29.024620 -1.526619 5.402652 5.680657 -5.769130 -1.808769 1.024475 -10.405296 -3.052359 -9.748476 0.301081 8.657352 22.474929 -3.298600 14.063263 -3.111036 0.114000 -2.176900 -5.994800 4.185407 1.835765 0.045773 16.253650 -1.867750 -11.798489 -1.604157 -10.052845 26.790492 5.332801 -22.481228 -11.990148 -0.026200 1.045900 -2.875100 -0.935821 -1.287987 -1.103336 2.596651 -1.865766 -2.387167 2.844903 -0.995860 -0.483894 2.064751 -7.413491 -19.357938 -1.228299 -10.257623 19.186867 -4.835400 -4.285500 11.295500 3.444468 -0.830521 0.152268 -86.640544 8.231409 17.154810 19.845722 -29.853557 -4.840792 0.237040 0.470799 -9.181718 14.102499 1.373105 0.229300 -7.125000 0.000000 0.000000 -10.129400 30.848800 3.551500 -3.097232 1.796376 0.199371 85.225250 -3.981937 0.112394 -14.012054 22.949197 -2.820226 0.037913 -0.524695 -4.809415 -15.099566 -3.492277 0.794500 7.125000 0.000000 0.000000 9.328400 -32.930500 2.790300 
0.435868 17.844239 -29.025515 -1.527334 5.321098 5.687184 -5.771262 -1.809622 1.025125 -10.420082 -3.070693 -9.736582 0.301166 8.656884 22.473471 -3.321193 14.138029 -3.152300 0.112700 -2.164800 -5.961300 4.184741 1.834148 0.047806 16.232639 -1.875109 -11.828963 -1.602689 -10.053207 26.795770 5.298143 -22.364251 -12.007227 -0.025100 1.023400 -2.813100 -0.927941 -1.322150 -1.102237 2.597983 -1.912393 -2.533189 2.840225 -1.011254 -0.641598 2.298493 -7.208393 -18.984029 -1.439774 -10.031900 19.211441 -4.911600 -4.188300 11.222700 3.449001 -0.857603 0.156490 -86.658380 8.652089 16.963442 19.786341 -29.763383 -4.814062 0.273364 0.405288 -9.183980 14.459794 -1.241420 -0.405700 -7.125000 0.000000 0.000000 -9.619400 28.267400 3.968100 -3.086858 1.789359 0.200083 85.234467 -4.353965 0.438136 -14.098959 23.063893 -2.849664 0.038754 -0.526752 -4.969743 -15.159863 -3.463106 0.789300 7.125000 0.000000 0.000000 9.276900 -32.900200 2.781400 
0.436166 17.844736 -29.027105 -1.606717 5.240262 5.672056 -5.767327 -1.808776 1.030678 -10.344319 -3.002530 -9.762106 0.306068 8.660535 22.487594 -3.331483 14.167709 -3.165457 0.113900 -2.175600 -5.991100 4.185254 1.831346 0.047955 16.312815 -1.808091 -11.804472 -1.600398 -10.050652 26.783695 5.300824 -22.370378 -11.942098 -0.026300 1.046400 -2.876400 -0.816074 -1.335164 -0.985940 2.608131 -1.928150 -2.765491 2.792186 -1.006058 -0.967875 2.544792 -7.017177 -18.475479 -1.719635 -9.828294 19.206742 -5.011700 -4.109300 11.106700 3.456233 -0.892966 0.161856 -86.660444 9.189365 16.847073 19.743289 -29.710534 -4.788791 0.221660 0.503031 -9.110561 13.942391 2.589742 0.513700 -7.125000 0.000000 0.000000 -10.386000 32.043100 3.341200 -3.075004 1.780450 0.201103 85.279461 -4.848508 0.681661 -14.210007 23.209627 -2.888645 0.044538 -0.532078 -5.011911 -15.157418 -3.811995 0.882100 7.125000 0.000000 0.000000 9.316200 -33.250500 2.713600 
0.436464 17.845034 -29.028895 -1.622840 5.217795 5.674340 -5.767618 -1.807757 1.029053 -10.331210 -3.026542 -9.759324 0.307228 8.663278 22.493625 -3.341267 14.200112 -3.173207 0.113200 -2.169200 -5.973400 4.184680 1.833042 0.046913 16.325996 -1.832990 -11.825122 -1.599319 -10.048551 26.778793 5.288466 -22.325919 -11.916896 -0.026000 1.041800 -2.863900 -0.820273 -1.366693 -0.993855 2.649624 -1.969597 -2.645587 2.844404 -1.033733 -0.820744 2.462582 -7.010996 -18.782440 -1.609748 -9.793386 19.221000 -4.968800 -4.088500 11.187500 3.459879 -0.877598 0.157482 -86.740494 8.883542 16.621617 19.525652 -29.444676 -4.691842 0.245777 0.458590 -8.997184 14.126479 0.920507 0.121300 -7.125000 0.000000 0.000000 -10.066600 30.402600 3.638100 -3.080429 1.783413 0.200002 85.231338 -4.532962 0.675812 -14.184226 23.176744 -2.877721 0.039940 -0.526895 -4.950897 -15.088624 -3.396200 0.767400 7.125000 0.000000 0.000000 9.325100 -32.829500 2.812300 
0.436961 17.845233 -29.030684 -1.645822 5.171824 5.676259 -5.767264 -1.807913 1.029286 -10.312713 -3.016769 -9.771771 0.309776 8.666850 22.504575 -3.350868 14.230561 -3.187917 0.112700 -2.164200 -5.959700 4.184577 1.833005 0.046620 16.343809 -1.826680 -11.836699 -1.597821 -10.045952 26.770405 5.281398 -22.297397 -11.873321 -0.026400 1.049700 -2.885600 -0.802266 -1.394614 -0.966681 2.677724 -2.006405 -2.663686 2.868747 -1.051069 -0.849802 2.529123 -6.917080 -18.778317 -1.675213 -9.673850 19.243605 -4.993000 -4.036400 11.198700 3.464542 -0.882851 0.157076 -86.800270 8.915029 16.425941 19.386694 -29.272091 -4.628975 0.249726 0.451727 -8.914929 14.131941 0.691558 0.066700 -7.125000 0.000000 0.000000 -10.040500 30.177500 3.683300 -3.078498 1.781221 0.199615 85.207194 -4.541298 0.795025 -14.203724 23.202024 -2.882975 0.037956 -0.524876 -4.918753 -15.059748 -3.180551 0.708500 7.125000 0.000000 0.000000 9.324200 -32.610800 2.861900 
0.437259 17.845432 -29.032572 -1.660745 5.134443 5.680757 -5.767382 -1.808147 1.029551 -10.300857 -3.005462 -9.783811 0.310745 8.667599 22.506426 -3.358851 14.256164 -3.193646 0.112300 -2.160500 -5.949500 4.184466 1.833332 0.045807 16.354034 -1.821377 -11.853110 -1.597827 -10.045539 26.769251 5.276945 -22.277748 -11.831482 -0.027000 1.060800 -2.916200 -0.796611 -1.421904 -0.943677 2.705819 -2.042207 -2.661400 2.900312 -1.069082 -0.853395 2.572239 -6.841145 -18.826237 -1.716114 -9.572782 19.268660 -5.008600 -3.991600 11.222500 3.468850 -0.884643 0.155946 -86.865414 8.889475 16.232792 19.242523 -29.093813 -4.564544 0.253904 0.444765 -8.834410 14.145848 0.463987 0.012500 -7.125000 0.000000 0.000000 -10.008600 29.954000 3.725500 -3.077753 1.779957 0.199161 85.178963 -4.501088 0.893327 -14.214801 23.216179 -2.885306 0.035284 -0.522325 -4.867786 -15.035046 -2.926507 0.639900 7.125000 0.000000 0.000000 9.316300 -32.353400 2.918000 
0.437657 17.845630 -29.034461 -1.665298 5.099664 5.688507 -5.768082 -1.808844 1.029377 -10.300253 -2.994619 -9.797378 0.311026 8.667410 22.505442 -3.366000 14.280035 -3.196949 0.111900 -2.156500 -5.938200 4.184365 1.833928 0.044829 16.352194 -1.818288 -11.875092 -1.598788 -10.046477 26.772727 5.272500 -22.257807 -11.792602 -0.027500 1.071500 -2.945500 -0.803238 -1.446918 -0.926991 2.730266 -2.075341 -2.648590 2.934454 -1.086216 -0.841599 2.603974 -6.776806 -18.894971 -1.741328 -9.485653 19.293095 -5.018600 -3.952100 11.250700 3.472669 -0.884648 0.154478 -86.930683 8.837109 16.052512 19.101142 -28.918894 -4.502357 0.261060 0.433404 -8.798042 14.208458 0.052563 -0.086200 -7.125000 0.000000 0.000000 -9.923400 29.549300 3.790200 -3.077530 1.779239 0.198802 85.151369 -4.442183 0.993281 -14.226685 23.232084 -2.888288 0.032539 -0.519995 -4.818570 -15.028552 -2.682739 0.574800 7.125000 0.000000 0.000000 9.295800 -32.106800 2.967400 
0.438253 17.845829 -29.036350 -1.663720 5.064588 5.696668 -5.769146 -1.809798 1.029270 -10.306853 -2.982410 -9.810458 0.310744 8.666363 22.501735 -3.373333 14.304510 -3.200825 0.111600 -2.154400 -5.932400 4.184248 1.834370 0.043943 16.342493 -1.812312 -11.896667 -1.600270 -10.048490 26.779478 5.267754 -22.236938 -11.758821 -0.028000 1.080000 -2.968800 -0.815169 -1.470948 -0.909685 2.751848 -2.107236 -2.644697 2.968539 -1.102191 -0.840169 2.647771 -6.711087 -18.946212 -1.785733 -9.398788 19.323629 -5.037400 -3.913500 11.276300 3.476230 -0.886008 0.153266 -86.998440 8.806678 15.884211 18.975426 -28.763619 -4.447339 0.265173 0.428014 -8.791733 14.248071 -0.137904 -0.132200 -7.125000 0.000000 0.000000 -9.876900 29.362200 3.816600 -3.076562 1.778102 0.198589 85.123528 -4.410312 1.117965 -14.250816 23.264472 -2.896064 0.030787 -0.518724 -4.794046 -15.037677 -2.517097 0.531100 7.125000 0.000000 0.000000 9.271200 -31.939400 2.997200 
0.438949 17.845929 -29.038039 -1.656873 5.032046 5.703184 -5.772989 -1.812428 1.030298 -10.317805 -2.976526 -9.818865 0.310461 8.664070 22.496686 -3.382624 14.335121 -3.208199 0.111500 -2.153000 -5.928700 4.182300 1.831581 0.045560 16.328046 -1.807263 -11.919389 -1.601716 -10.051274 26.788557 5.260807 -22.209671 -11.731558 -0.028200 1.083800 -2.979500 -0.887985 -1.654064 -0.890145 2.924547 -2.353169 -2.676579 3.216588 -1.221951 -0.840513 2.806428 -6.258878 -19.142094 -2.152615 -8.760016 19.403454 -5.150100 -3.662900 11.376900 3.484359 -0.910140 0.156299 -87.480968 8.929133 15.164055 18.890926 -28.670430 -4.413142 0.267068 0.426393 -8.752739 14.274841 -0.178017 -0.142000 -7.125000 0.000000 0.000000 -9.853500 29.323300 3.816500 -3.059444 1.757570 0.195249 84.716750 -4.357248 1.832697 -14.268328 23.276152 -2.898594 0.030695 -0.517434 -4.867675 -15.057632 -2.442389 0.512100 7.125000 0.000000 0.000000 9.247600 -31.864900 3.006200 
0.439744 17.846127 -29.039630 -1.650638 4.999864 5.707377 -5.777693 -1.815570 1.031910 -10.328244 -2.971629 -9.825184 0.310330 8.661670 22.491671 -3.392837 14.368645 -3.216643 0.111400 -2.151700 -5.925100 4.179694 1.827458 0.048160 16.314229 -1.799978 -11.939302 -1.603117 -10.054305 26.797731 5.253253 -22.180723 -11.705775 -0.028200 1.083800 -2.979400 -0.971112 -1.896778 -0.865746 3.150384 -2.679446 -2.724354 3.533438 -1.380827 -0.843636 3.045310 -5.643355 -19.392460 -2.657841 -7.894947 19.494764 -5.309100 -3.324400 11.509100 3.494573 -0.943506 0.161387 -88.117901 9.105907 14.241108 18.832740 -28.614225 -4.391003 0.265973 0.427902 -8.718698 14.246758 -0.091482 -0.120700 -7.125000 0.000000 0.000000 -9.882700 29.409200 3.807600 -3.035770 1.729150 0.190858 84.173957 -4.293175 2.770995 -14.288136 23.286522 -2.900823 0.031821 -0.516510 -4.981602 -15.072663 -2.439350 0.512100 7.125000 0.000000 0.000000 9.235500 -31.863000 3.002600 
0.440540 17.846326 -29.041121 -1.649589 4.967488 5.711314 -5.781721 -1.818106 1.033228 -10.333778 -2.970370 -9.830639 0.310278 8.659715 22.487776 -3.404245 14.405876 -3.227165 0.111100 -2.148800 -5.917000 4.177540 1.823922 0.050317 16.305887 -1.790725 -11.957295 -1.604196 -10.056941 26.805570 5.245921 -22.152507 -11.680894 -0.028100 1.082900 -2.977000 -1.030950 -2.106450 -0.836994 3.342649 -2.961043 -2.768042 3.797254 -1.518027 -0.850890 3.278458 -5.096288 -19.599712 -3.098662 -7.131335 19.558550 -5.450300 -3.024700 11.622800 3.503745 -0.972890 0.166253 -88.672252 9.259095 13.438830 18.786996 -28.571019 -4.373224 0.262758 0.429943 -8.706917 14.154309 0.022538 -0.092400 -7.125000 0.000000 0.000000 -9.963100 29.521600 3.812400 -3.014843 1.704409 0.187383 83.714400 -4.238824 3.603315 -14.318562 23.313604 -2.907409 0.033289 -0.515938 -5.109187 -15.072103 -2.444567 0.513600 7.125000 0.000000 0.000000 9.236200 -31.868800 3.001500 
0.441136 17.846624 -29.042811 -1.656155 4.936370 5.716275 -5.784307 -1.819611 1.033651 -10.331425 -2.973948 -9.836886 0.310597 8.658773 22.485765 -3.416363 14.445363 -3.239146 0.110500 -2.142900 -5.900800 4.176385 1.821906 0.051267 16.306095 -1.779914 -11.974116 -1.604875 -10.058478 26.810452 5.239948 -22.129420 -11.655479 -0.028100 1.082900 -2.976800 -1.058761 -2.236781 -0.813086 3.462308 -3.135963 -2.791241 3.956224 -1.603491 -0.853109 3.452722 -4.741210 -19.740700 -3.379030 -6.642855 19.591030 -5.544400 -2.831200 11.696700 3.510027 -0.991519 0.169328 -89.030013 9.344620 12.918513 18.744882 -28.526925 -4.355562 0.258841 0.431251 -8.725257 14.027861 0.108826 -0.070900 -7.125000 0.000000 0.000000 -10.067100 29.606300 3.832700 -3.001481 1.688807 0.185464 83.439803 -4.200794 4.168839 -14.361718 23.363554 -2.920099 0.034409 -0.515924 -5.220574 -15.078391 -2.435851 0.511400 7.125000 0.000000 0.000000 9.230100 -31.860000 3.001500 
